<svg id="visual" viewBox="0 0 960 540" width="960" height="540" xmlns="http://www.w3.org/2000/svg" xmlns:xlink="http://www.w3.org/1999/xlink" version="1.1"><rect x="0" y="0" width="960" height="540" fill="#001220"></rect><path d="M0 409L22.8 413.2C45.7 417.3 91.3 425.7 137 427.7C182.7 429.7 228.3 425.3 274 427.8C319.7 430.3 365.3 439.7 411.2 443.3C457 447 503 445 548.8 446.7C594.7 448.3 640.3 453.7 686 453C731.7 452.3 777.3 445.7 823 438.8C868.7 432 914.3 425 937.2 421.5L960 418L960 541L937.2 541C914.3 541 868.7 541 823 541C777.3 541 731.7 541 686 541C640.3 541 594.7 541 548.8 541C503 541 457 541 411.2 541C365.3 541 319.7 541 274 541C228.3 541 182.7 541 137 541C91.3 541 45.7 541 22.8 541L0 541Z" fill="#fa7268"></path><path d="M0 453L22.8 456C45.7 459 91.3 465 137 467.2C182.7 469.3 228.3 467.7 274 466.7C319.7 465.7 365.3 465.3 411.2 463.8C457 462.3 503 459.7 548.8 461.3C594.7 463 640.3 469 686 472.3C731.7 475.7 777.3 476.3 823 478.5C868.7 480.7 914.3 484.3 937.2 486.2L960 488L960 541L937.2 541C914.3 541 868.7 541 823 541C777.3 541 731.7 541 686 541C640.3 541 594.7 541 548.8 541C503 541 457 541 411.2 541C365.3 541 319.7 541 274 541C228.3 541 182.7 541 137 541C91.3 541 45.7 541 22.8 541L0 541Z" fill="#e34c67"></path><path d="M0 485L22.8 485C45.7 485 91.3 485 137 484.8C182.7 484.7 228.3 484.3 274 488.2C319.7 492 365.3 500 411.2 501.5C457 503 503 498 548.8 499.2C594.7 500.3 640.3 507.7 686 510.3C731.7 513 777.3 511 823 506C868.7 501 914.3 493 937.2 489L960 485L960 541L937.2 541C914.3 541 868.7 541 823 541C777.3 541 731.7 541 686 541C640.3 541 594.7 541 548.8 541C503 541 457 541 411.2 541C365.3 541 319.7 541 274 541C228.3 541 182.7 541 137 541C91.3 541 45.7 541 22.8 541L0 541Z" fill="#c62368"></path></svg>